<?xml version="1.0" encoding="UTF-8"?>
<svg width="640px" height="230px" viewBox="0 0 640 230" version="1.1" xmlns="http://www.w3.org/2000/svg" xmlns:xlink="http://www.w3.org/1999/xlink">
    <title>illu_home_tablet und phone</title>
    <defs>
        <path d="M0,10.7919103 C0.303838751,12.2472572 8.06010398,16.8315545 16.0953032,15.1538756 C24.1305023,13.4761966 29.3731924,6.02150607 29.1010507,4.71694654 C28.828909,3.41238702 21.0409467,-1.32224485 13.0057476,0.355434096 C4.97054839,2.03311304 0,10.7919103 0,10.7919103" id="path-1"></path>
        <path d="M2.37456097,0.698240469 C3.25696816,0.319879618 4.19391058,0.084191982 5.15031588,0 C5.3380831,0.396363915 5.52766157,0.823217362 5.71905131,1.28056034 C6.02968228,2.02498792 6.97742372,4.3692103 7.25318796,5.16933411 C8.81268223,9.69340708 9.04135372,13.1194041 7.82147057,13.628368 C6.60158741,14.1373318 4.32619289,11.5662492 2.20656667,7.27628151 C1.83163599,6.51691104 0.831368029,4.19487659 0.520737055,3.45044901 C0.324819172,2.98133284 0.151240153,2.53666868 0,2.11645652 C0.715995709,1.52741949 1.51645671,1.04934095 2.37456097,0.698240469 Z" id="path-3"></path>
        <path d="M2.52127298,0.552434093 C1.61441389,0.867694284 0.763386696,1.32499913 0,1.90725607 C0.127995659,2.3265626 0.275613293,2.76971738 0.442852904,3.23672041 C0.714541803,3.99609088 1.59481383,6.36657652 1.93034962,7.14405958 C3.82719095,11.5363634 5.96719384,14.2220082 7.21152899,13.7759856 C8.45586414,13.329963 8.40379044,9.89672094 7.07840143,5.29883915 C6.84384335,4.48377245 6.0179091,2.09562704 5.74576738,1.33670938 C5.5743015,0.857933166 5.40283562,0.412363372 5.23136974,0 C4.3054563,0.0475442974 3.39191902,0.233762423 2.52127298,0.552434093 L2.52127298,0.552434093 Z" id="path-5"></path>
    </defs>
    <g id="Design" stroke="none" stroke-width="1" fill="none" fill-rule="evenodd">
        <g id="Mit_Spass_lernen_Tablet" transform="translate(-0.000000, 0.000000)">
            <path d="M28.1054329,210.849603 C23.4772126,216.13033 15.2124363,219.526441 9.62198438,221.403359 C7.11610711,222.245594 4.34125783,222.968739 2.30947768,224.023798 C-0.803171461,225.639894 -1.17719651,228.310143 3.7358444,229.378786 C5.58660662,229.720537 7.46121381,229.917354 9.34259763,229.967445 C30.5343317,231.077747 52.5411325,229.804885 73.875956,229.917636 C106.376288,230.089705 137.551683,230.397167 164.550767,227.826084 C175.046562,226.826722 185.656919,223.258088 192.180623,219.504706 C192.278884,219.448557 192.376692,219.391502 192.473594,219.3349 C199.244064,215.377872 203.91843,208.629711 205.242972,200.900356 C206.521721,193.422119 206.496364,185.019234 205.309083,175.792226 C200.458983,147.57507 185.2435,125.067909 171.125186,100.787072 C158.979334,79.9123085 146.66594,59.1385225 133.933693,38.6305388 C129.436336,31.3855015 124.915885,24.1440868 120.143217,17.0801754 C118.365013,14.4629057 116.013093,9.46111307 113.088815,7.90026035 C91.9052313,-3.41241256 65.7574389,15.7384851 52.2372937,24.3990215 C43.3263507,30.1121862 34.2605449,35.9584785 27.5022836,44.1539741 C10.8758286,64.3218939 11.7733076,93.8703256 17.4688126,119.569831 C20.5628963,133.52966 24.7718102,147.217346 27.7024277,161.21657 C28.3318404,164.225071 30.4555419,189.674623 31.5223737,201.342756 C31.8574566,205.025499 30.4482969,208.178449 28.1054329,210.849603 Z" id="Path" fill="#41BFA4" fill-rule="nonzero"></path>
            <path d="M33.9530837,215.150891 C32.2138219,215.983165 30.4143358,216.673255 28.9268391,217.391872 C23.277974,220.120081 17.3347794,222.188992 11.4323381,224.284619 C6.81589088,225.923356 6.65604724,227.115165 8.7095625,227.967815 C12.5290556,229.555837 24.0147038,229.972426 28.741185,229.911296 L131.56366,228.666056 C141.734787,228.54289 152.039041,228.410668 161.802181,227.184446 C181.833351,224.668606 192.068777,219.882354 196.632698,212.001564 C201.630415,200.152306 202.968483,184.641134 198.388261,163.208502 C192.779697,143.578979 180.91459,123.080958 170.973946,105.276278 C162.003231,89.2085969 152.203865,73.6430871 142.805694,57.8212842 C135.168066,44.9722105 128.270338,34.7476516 120.074389,24.1938964 C115.876796,18.8130978 105.232477,10.0298485 98.6399463,12.4755014 C98.6399463,12.4755014 74.4455971,25.2417099 61.5403744,33.1741201 C53.0328894,38.4118293 44.3737114,43.7722512 37.8939311,51.2228664 C21.9439815,69.5745459 24.5250261,95.5412123 29.7328494,118.704955 C34.2075656,138.607978 35.6611012,159.590512 37.7408797,179.841749 C38.3548966,185.818905 38.9299715,191.8024 39.4162946,197.797216 C39.7192277,201.516184 41.640521,205.823812 40.2607943,209.516969 C39.2646016,212.187218 36.6831043,213.844521 33.9530837,215.150891 Z" id="Path" fill="#30AB91" fill-rule="nonzero"></path>
            <path d="M154.935244,79.7556345 C154.935244,79.7556345 141.995608,110.110982 168.215398,116.886451 C176.49557,126.766417 182.269865,84.8244438 186.068981,78.3881338 C182.283449,65.3751412 166.139695,57.9996932 154.935244,79.7556345 Z" id="Path" fill="#30AB91" fill-rule="nonzero"></path>
            <ellipse id="Oval" fill="#41BFA4" fill-rule="nonzero" transform="translate(112.850396, 36.562635) rotate(-39.667000) translate(-112.850396, -36.562635) " cx="112.850396" cy="36.562635" rx="5.16390033" ry="12.1069101"></ellipse>
            <ellipse id="Oval" fill="#41BFA4" fill-rule="nonzero" transform="translate(112.070846, 53.072688) rotate(-44.797000) translate(-112.070846, -53.072688) " cx="112.070846" cy="53.0726883" rx="2.26135726" ry="3.60802857"></ellipse>
            <ellipse id="Oval" fill="#41BFA4" fill-rule="nonzero" transform="translate(95.737024, 32.841490) rotate(-31.457000) translate(-95.737024, -32.841490) " cx="95.7370243" cy="32.8414905" rx="4.152312" ry="6.62286971"></ellipse>
            <ellipse id="Oval" fill="#7D4738" fill-rule="nonzero" transform="translate(87.553920, 74.258186) rotate(-14.137000) translate(-87.553920, -74.258186) " cx="87.5539199" cy="74.2581864" rx="2.09879674" ry="2.92790069"></ellipse>
            <ellipse id="Oval" fill="#7D4738" fill-rule="nonzero" transform="translate(116.917079, 73.708771) rotate(-14.137000) translate(-116.917079, -73.708771) " cx="116.917079" cy="73.7087709" rx="2.09879674" ry="2.92790069"></ellipse>
            <path d="M117.061812,84.8022558 L87.4545143,83.605919 C87.33316,86.1792657 84.6321195,97.3877912 103.85592,97.3035677 C123.040779,97.2175328 117.061812,84.8022558 117.061812,84.8022558 Z" id="Path" fill="#256357" fill-rule="nonzero"></path>
            <path d="M57.6792223,10.3463661 L61.0006191,21.7871856 C52.882102,30.812238 42.5072086,31.7898652 42.5072086,31.7898652 L32.1975206,22.4673134 L57.6792223,10.3463661 Z" id="Path" fill="#353535" fill-rule="nonzero"></path>
            <polygon id="Path" fill="#666E7A" fill-rule="nonzero" points="65.649669 5.81233116 45.4070348 22.0108761 27.1998033 24.5158477 44.8573176 11.5866259"></polygon>
            <circle id="Oval" fill="#F5D20C" fill-rule="nonzero" cx="20.3256213" cy="22.0375922" r="1.14471589"></circle>
            <path d="M19.7165854,22.2015111 L14.2171493,21.6798685 C14.0750387,21.210185 13.9931785,20.7243491 13.9735349,20.2340307 C14.0437212,19.9170603 14.9520678,19.2573091 14.9520678,19.2573091 L20.0018587,21.6010787 L19.7165854,22.2015111 Z" id="Path" fill="#F5D20C" fill-rule="nonzero"></path>
            <path d="M43.0632652,16.4276692 C42.8599514,16.1899414 38.2720315,9.63272989 33.8167864,11.3108617 C29.3615413,12.9889934 28.5147776,22.8463195 20.4143731,22.0217437" id="Path" stroke="#F5D20C" stroke-width="1.567" stroke-linecap="round" stroke-linejoin="round"></path>
            <path d="M164.113801,69.5931113 C164.887209,68.5063557 166.672205,67.6269893 167.003665,66.3052228 C167.073012,65.7455645 167.078481,65.1798348 167.019967,64.6189404 C167.044405,63.4952575 167.581325,62.4444342 168.477578,61.766207 C171.104757,59.8864272 173.874058,58.2136734 176.760466,56.7630559 C178.81719,55.6550017 180.964121,54.7232462 183.178211,53.9777919 C185.923175,53.0889164 189.556108,52.2697743 192.199188,53.9270766 C193.022646,54.4791675 193.658513,55.2688684 194.022221,56.1911508 C194.022221,56.1911508 195.108976,57.0311223 194.951397,62.3901858 C199.526769,67.9948215 200.509054,75.7165659 197.482632,82.2882279 C193.889093,90.0005701 185.105391,96.5695548 176.426742,93.1159361 C174.072909,92.0984626 171.929354,90.6511521 170.1059,88.8481563 C166.227088,85.2156758 162.965463,80.4950812 162.675208,75.176771 C162.567891,73.6802167 162.823745,72.1798882 163.420994,70.8034853 C163.613323,70.3791229 163.845288,69.9738667 164.113801,69.5931113 Z" id="Path" fill="#41BFA4" fill-rule="nonzero"></path>
            <path d="M161.123865,76.0747028 C161.943912,73.5647502 162.645775,68.5289964 165.805064,64.7335025 C169.286634,60.5667886 173.891682,57.4876928 179.072539,55.8624072 C179.815608,55.5689832 180.476265,55.0894523 181.222504,54.8082543 C183.474352,53.9601321 189.720027,53.3021921 191.268201,55.1437901 C192.866637,57.0419898 192.092777,64.3255164 192.092777,64.3255164 C192.092777,64.3255164 195.632883,64.2068789 195.952117,69.0859587 C196.993592,74.5056994 195.132975,80.8369564 192.134436,85.667585 C191.828465,86.1394369 191.473115,86.5773632 191.074396,86.9739558 C184.625407,93.6085987 169.384566,97.0540667 164.573408,89.1542592 L161.123865,76.0747028 Z" id="Path" fill="#30AB91" fill-rule="nonzero"></path>
            <path d="M178.262906,89.9059318 L178.749682,91.6112324 C178.749682,91.6112324 187.530214,90.3813874 192.665587,86.2680174 L191.854596,83.7607817" id="Path" fill="#C0C3C6" fill-rule="nonzero"></path>
            <path d="M177.508064,88.82461 L178.014764,90.6000969 C178.014764,90.6000969 187.158906,89.3195366 192.504838,85.0372667 L191.660338,82.4258836" id="Path" fill="#DCE0E3" fill-rule="nonzero"></path>
            <path d="M147.274523,6.89591705 L146.501115,5.25536892 C146.501115,5.25536892 154.088934,0.291159936 160.810064,0 L161.873273,2.47644431" id="Path" fill="#C0C3C6" fill-rule="nonzero"></path>
            <path d="M147.421688,8.23715458 L146.616583,6.52913704 C146.616583,6.52913704 154.51956,1.35980294 161.517361,1.05596418 L162.624946,3.63700872" id="Path" fill="#DCE0E3" fill-rule="nonzero"></path>
            <path d="M146.795445,8.35126392 L162.294844,49.2404431 L176.65813,88.8336663 C176.65813,88.8336663 184.78027,89.1841449 192.405219,82.9986944 L176.137846,42.9277516 L162.701924,1.88144562 C162.701924,1.88144562 151.878744,4.22793207 146.795445,8.35126392 Z" id="Path" fill="#EEF0F4" fill-rule="nonzero"></path>
            <rect id="Rectangle" fill="#D83A4B" fill-rule="nonzero" transform="translate(164.540097, 47.580888) rotate(69.533000) translate(-164.540097, -47.580888) " x="161.402995" y="44.6495915" width="6.27420229" height="5.86259361"></rect>
            <polygon id="Path" fill="#D83A4B" fill-rule="nonzero" points="181.559398 37.5659712 177.633041 37.4192591 176.694356 33.6038414 172.40801 38.8678138 177.273053 42.8294907"></polygon>
            <polygon id="Path" fill="#D83A4B" fill-rule="nonzero" points="184.079765 44.3187987 181.209825 47.0017266 183.000255 50.4992683 176.313085 49.3310061 177.392596 43.1505365"></polygon>
            <circle id="Oval" fill="#FDCA55" fill-rule="nonzero" cx="171.323066" cy="45.1601287" r="6.78814712"></circle>
            <circle id="Oval" stroke="#FD953A" stroke-width="1.451" cx="171.323066" cy="45.1601287" r="4.96783151"></circle>
            <path d="M183.707552,64.2390287 C181.244239,65.2003546 178.582593,65.5648706 176.35882,64.8602907 C174.089548,64.2159177 172.475316,62.2077977 172.333749,59.8530643 C172.292484,59.0453174 172.461123,58.2406522 172.823242,57.5174454 C173.726154,55.7763724 175.783292,54.7865192 177.638022,54.4677375 C179.492751,54.1489559 184.61454,54.9305143 184.61454,54.9305143 C184.61454,54.9305143 181.065377,54.4971705 179.978169,54.7738403 C178.738489,55.1866102 177.602805,55.8627377 176.649074,56.7558109 C175.597185,57.7212121 174.85321,59.1688611 175.164294,60.3470853 C175.227688,64.7162956 183.707099,64.2372175 183.707552,64.2390287 Z" id="Path" fill="#41BFA4" fill-rule="nonzero"></path>
            <path d="M184.303003,67.0881397 C173.411901,63.5272038 174.464242,60.3298783 174.946037,57.041537 C175.498019,53.2632501 188.296377,55.0491518 188.296377,55.0491518 C199.828665,58.0839168 189.008202,68.4805453 184.303003,67.0881397 Z" id="Path" fill="#30AB91" fill-rule="nonzero"></path>
            <path d="M182.702303,76.8779963 C174.897133,74.7411631 176.084414,71.3654285 176.701148,67.9928637 C177.317882,64.6202988 186.900802,64.1937473 186.900802,64.1937473 C195.240293,65.712941 192.878863,77.3339808 182.702303,76.8779963 Z" id="Path" fill="#30AB91" fill-rule="nonzero"></path>
            <path d="M188.9756,75.6381893 C186.742769,76.5782329 180.598525,77.5137483 178.401015,76.5664597 C176.001391,75.4647152 174.334752,73.2089657 173.986523,70.591568 C173.850272,69.7095192 173.917177,68.8080061 174.182139,67.9557329 C174.837362,66.0249304 176.678507,65.0296434 178.406901,64.7860291 C180.135295,64.5424147 187.619872,64.0787323 187.619872,64.0787323 C187.619872,64.0787323 181.678488,65.0436807 180.674145,65.2845782 C179.669802,65.5254757 178.459881,66.4877072 177.736735,67.3331125 C176.849671,68.3705113 176.309463,69.9748342 176.742807,71.3400709 C177.319693,76.3287319 188.978769,75.6386421 188.9756,75.6381893 Z" id="Path" fill="#41BFA4" fill-rule="nonzero"></path>
            <path d="M190.574941,85.7499973 C187.128115,85.6616984 184.618162,83.0389949 184.133198,79.7511064 C183.648233,76.4632179 189.634898,74.0537902 189.634898,74.0537902 C197.91507,72.477089 198.867792,85.9619146 190.574941,85.7499973 Z" id="Path" fill="#30AB91" fill-rule="nonzero"></path>
            <path d="M194.972226,84.9439869 C192.94271,86.2653005 190.539169,86.9495038 188.20355,86.4079372 C185.645557,85.7509105 183.604001,83.8266491 182.796941,81.3119591 C182.506062,80.4689814 182.410982,79.5708296 182.518913,78.6856331 C182.821393,76.6697015 184.459224,75.3619722 186.115168,74.8136135 C187.771112,74.2652547 189.548863,74.25484 191.194845,73.6770483 C190.313214,74.3318185 189.374529,74.4853227 188.432674,74.9032708 C187.49082,75.3212189 186.467005,76.4795192 185.904609,77.4390339 C185.215878,78.6163524 184.971811,80.2917673 185.638807,81.5596488 C188.376978,87.4639014 194.972226,84.9439869 194.972226,84.9439869 Z" id="Path" fill="#41BFA4" fill-rule="nonzero"></path>
            <polygon id="Path" stroke="#FFEE52" stroke-width="1.867" fill="#FFEE52" fill-rule="nonzero" stroke-linecap="round" stroke-linejoin="round" points="238.109178 206.248099 183.931695 206.248099 195.033356 211.645199 253.690084 211.645199"></polygon>
            <polygon id="Path" fill="#F8E3B2" fill-rule="nonzero" points="184.279457 196.563748 184.279457 206.249005 186.765863 207.478397 195.338553 211.721725 195.338553 201.716328 193.671742 200.939751"></polygon>
            <path d="M186.765863,207.478397 L195.338553,211.721725 L195.338553,201.714517 L193.671289,200.937939 L193.655893,201.714517 C193.655893,201.714517 194.652086,206.14531 191.898972,207.28912 C190.036997,208.067962 187.93322,207.759595 186.765863,207.478397 Z" id="Path" fill="#E2C99A" fill-rule="nonzero"></path>
            <rect id="Rectangle" fill="#FFEE52" fill-rule="nonzero" transform="translate(224.566619, 206.859173) rotate(-180.000000) translate(-224.566619, -206.859173) " x="194.981282" y="201.716328" width="59.1706723" height="10.2856889"></rect>
            <polygon id="Path" stroke="#E8C517" stroke-width="1.867" fill="#E8C517" fill-rule="nonzero" stroke-linecap="round" stroke-linejoin="round" points="238.109178 196.395301 183.931695 196.395301 195.033356 201.792401 253.690084 201.792401"></polygon>
            <polygon id="Path" stroke="#CC4646" stroke-width="1.867" fill="#CC4646" fill-rule="nonzero" stroke-linecap="round" stroke-linejoin="round" points="239.612071 194.589023 185.434587 194.589023 196.536249 199.986123 255.192976 199.986123"></polygon>
            <polygon id="Path" fill="#F8E3B2" fill-rule="nonzero" points="185.781896 184.904672 185.781896 194.589928 188.268755 195.819321 196.841446 200.062648 196.841446 190.057705 195.174634 189.280674"></polygon>
            <path d="M188.268755,195.819321 L196.841446,200.062648 L196.841446,190.055441 L195.174182,189.278863 L195.158786,190.055441 C195.158786,190.055441 196.154978,194.486234 193.401864,195.630044 C191.53989,196.40798 189.435659,196.100519 188.268755,195.819321 Z" id="Path" fill="#E2C99A" fill-rule="nonzero"></path>
            <rect id="Rectangle" fill="#F0605B" fill-rule="nonzero" transform="translate(226.069511, 195.199644) rotate(-180.000000) translate(-226.069511, -195.199644) " x="196.484175" y="190.056799" width="59.1706723" height="10.2856889"></rect>
            <polygon id="Path" stroke="#CC4646" stroke-width="1.867" fill="#CC4646" fill-rule="nonzero" stroke-linecap="round" stroke-linejoin="round" points="239.612071 184.736225 185.434587 184.736225 196.536249 190.133325 255.192976 190.133325"></polygon>
            <polygon id="Path" stroke="#A33CF2" stroke-width="1.867" fill="#A33CF2" fill-rule="nonzero" stroke-linecap="round" stroke-linejoin="round" points="234.420549 184.125378 180.243065 184.125378 191.344727 189.522478 250.001454 189.522478"></polygon>
            <polygon id="Path" fill="#F8E3B2" fill-rule="nonzero" points="180.590827 174.441027 180.590827 184.12583 183.077233 185.355676 191.649924 189.599003 191.649924 179.593607 189.983112 178.817029"></polygon>
            <path d="M183.077233,185.355676 L191.649924,189.599003 L191.649924,179.591796 L189.98266,178.814765 L189.967264,179.591796 C189.967264,179.591796 190.963456,184.022589 188.210342,185.166399 C186.348368,185.94524 184.244137,185.636421 183.077233,185.355676 Z" id="Path" fill="#E2C99A" fill-rule="nonzero"></path>
            <rect id="Rectangle" fill="#B852FF" fill-rule="nonzero" transform="translate(220.877989, 184.736451) rotate(-180.000000) translate(-220.877989, -184.736451) " x="191.292653" y="179.593607" width="59.1706723" height="10.2856889"></rect>
            <polygon id="Path" stroke="#A33CF2" stroke-width="1.867" fill="#A33CF2" fill-rule="nonzero" stroke-linecap="round" stroke-linejoin="round" points="234.420549 174.27258 180.243065 174.27258 191.344727 179.66968 250.001454 179.66968"></polygon>
            <polygon id="Path" stroke="#4B59D1" stroke-width="1.867" fill="#4B59D1" fill-rule="nonzero" stroke-linecap="round" stroke-linejoin="round" points="242.312658 172.261629 174.974565 172.261629 186.998157 178.107016 259.188161 178.107016"></polygon>
            <polygon id="Path" fill="#F8E3B2" fill-rule="nonzero" points="175.350854 161.772626 175.350854 172.262535 178.044197 173.594263 187.328712 178.189881 187.328712 167.353569 185.523339 166.512239"></polygon>
            <path d="M178.044197,173.594263 L187.326901,178.189881 L187.326901,167.353569 L185.521528,166.512239 L185.504774,167.353569 C185.504774,167.353569 186.582926,172.153406 183.602951,173.390949 C181.58702,174.232279 179.308003,173.898555 178.044197,173.594263 Z" id="Path" fill="#E2C99A" fill-rule="nonzero"></path>
            <rect id="Rectangle" fill="#5C6CFF" fill-rule="nonzero" transform="translate(223.315265, 172.923192) rotate(-180.000000) translate(-223.315265, -172.923192) " x="186.942008" y="167.353116" width="72.7465138" height="11.1401505"></rect>
            <polygon id="Path" stroke="#4B59D1" stroke-width="1.867" fill="#4B59D1" fill-rule="nonzero" stroke-linecap="round" stroke-linejoin="round" points="242.312658 161.590142 174.974565 161.590142 186.998157 167.435981 259.188161 167.435981"></polygon>
            <polygon id="Path" stroke="#FFEE52" stroke-width="1.867" fill="#FFEE52" fill-rule="nonzero" stroke-linecap="round" stroke-linejoin="round" points="238.109178 160.860657 183.931695 160.860657 195.033356 166.257757 253.690084 166.257757"></polygon>
            <polygon id="Path" fill="#F8E3B2" fill-rule="nonzero" points="184.279457 151.176306 184.279457 160.861563 186.765863 162.090955 195.338553 166.334283 195.338553 156.329339 193.671742 155.552309"></polygon>
            <path d="M186.765863,162.090955 L195.338553,166.334283 L195.338553,156.327075 L193.671289,155.550498 L193.655893,156.327075 C193.655893,156.327075 194.652086,160.757868 191.898972,161.901679 C190.036997,162.68052 187.93322,162.372153 186.765863,162.090955 Z" id="Path" fill="#E2C99A" fill-rule="nonzero"></path>
            <rect id="Rectangle" fill="#FFEE52" fill-rule="nonzero" transform="translate(224.566619, 161.471278) rotate(-180.000000) translate(-224.566619, -161.471278) " x="194.981282" y="156.328434" width="59.1706723" height="10.2856889"></rect>
            <polygon id="Path" stroke="#E8C517" stroke-width="1.867" fill="#E8C517" fill-rule="nonzero" stroke-linecap="round" stroke-linejoin="round" points="238.109178 151.007859 183.931695 151.007859 195.033356 156.405412 253.690084 156.405412"></polygon>
            <polygon id="Path" stroke="#CC4646" stroke-width="1.867" fill="#CC4646" fill-rule="nonzero" stroke-linecap="round" stroke-linejoin="round" points="239.612071 149.672961 185.434587 149.672961 196.536249 155.070061 255.192976 155.070061"></polygon>
            <polygon id="Path" fill="#F8E3B2" fill-rule="nonzero" points="185.781896 139.98861 185.781896 149.673414 188.268755 150.903259 196.841446 155.146587 196.841446 145.14119 195.174634 144.364613"></polygon>
            <path d="M188.268755,150.903259 L196.841446,155.146587 L196.841446,145.139379 L195.174182,144.362349 L195.158786,145.139379 C195.158786,145.139379 196.154978,149.570172 193.401864,150.713983 C191.53989,151.492824 189.435659,151.184004 188.268755,150.903259 Z" id="Path" fill="#E2C99A" fill-rule="nonzero"></path>
            <rect id="Rectangle" fill="#F0605B" fill-rule="nonzero" transform="translate(226.069511, 150.284035) rotate(-180.000000) translate(-226.069511, -150.284035) " x="196.484175" y="145.14119" width="59.1706723" height="10.2856889"></rect>
            <polygon id="Path" stroke="#CC4646" stroke-width="1.867" fill="#CC4646" fill-rule="nonzero" stroke-linecap="round" stroke-linejoin="round" points="239.612071 139.820163 185.434587 139.820163 196.536249 145.217263 255.192976 145.217263"></polygon>
            <path d="M204.262175,138.623827 C204.566014,140.079173 212.322279,144.663471 220.357478,142.985792 C228.392678,141.308113 233.635368,133.853422 233.363226,132.548863 C233.091084,131.244303 225.303122,126.509671 217.267923,128.18735 C209.232724,129.865029 204.262175,138.623827 204.262175,138.623827" id="Path" fill="#262626" fill-rule="nonzero"></path>
            <g id="Clipped" transform="translate(218.279964, 149.137307)">
                <mask id="mask-2" fill="white">
                    <use xlink:href="#path-1"></use>
                </mask>
                <g id="Path"></g>
                <g id="Group" mask="url(#mask-2)" stroke="#404040" stroke-linecap="round" stroke-width="1.111">
                    <g transform="translate(-12.319733, -13.121694)" id="Path">
                        <path d="M27.3875994,1.94891503 C27.3875994,1.94891503 24.1237101,3.28245471 14.0680512,5.38170426 C4.01239221,7.48095381 0.407080533,7.58147871 0.407080533,7.58147871"></path>
                        <path d="M26.9805189,2.57395431e-14 C26.9805189,2.57395431e-14 23.7170824,1.33353968 13.6614234,3.43278923 C3.6057645,5.53203878 2.57395431e-14,5.63256368 2.57395431e-14,5.63256368"></path>
                    </g>
                </g>
            </g>
            <path d="M223.466958,141.085328 C222.884395,141.018995 222.420666,140.566632 222.339902,139.985894 C222.263469,139.648425 222.30652,139.294889 222.461709,138.985626 C222.58499,138.728326 222.818014,138.540576 223.09565,138.474851 C223.1521,138.463108 223.209607,138.457191 223.267266,138.457191 C223.849829,138.523523 224.313558,138.975887 224.394323,139.556625 C224.543299,140.27162 224.203688,140.949484 223.636763,141.067668 C223.580313,141.079411 223.522806,141.085328 223.465147,141.085328 L223.466958,141.085328 Z" id="Path" fill="#404040" fill-rule="nonzero"></path>
            <path d="M223.268625,138.708503 C223.732143,138.774399 224.093584,139.143455 224.149803,139.608246 C224.268893,140.177434 224.011241,140.733038 223.587407,140.821337 C223.547978,140.829851 223.507748,140.834102 223.467411,140.834017 C223.004039,140.768166 222.642642,140.399341 222.586233,139.934726 C222.467143,139.365084 222.725247,138.809481 223.148629,138.721182 C223.188097,138.712912 223.228301,138.708664 223.268625,138.708503 M223.268625,138.205426 C223.193771,138.205532 223.119124,138.21327 223.04584,138.228519 C222.342166,138.375231 221.913803,139.185317 222.094929,140.039779 C222.195192,140.739615 222.764446,141.278099 223.468769,141.339359 C223.543635,141.339498 223.618308,141.331757 223.691554,141.316264 C224.395228,141.169552 224.823591,140.359466 224.642465,139.507721 C224.542237,138.807788 223.973021,138.269153 223.268625,138.20769 L223.268625,138.205426 Z" id="Shape" fill="#262626" fill-rule="nonzero"></path>
            <path d="M197.194189,132.127292 C199.215101,141.805756 208.311698,140.567761 219.370795,138.258858 C230.429891,135.949955 239.262045,133.445889 237.241585,123.768783 C235.221125,114.091678 227.765982,104.535926 212.974785,107.62367 C198.183589,110.711415 195.173729,122.448828 197.194189,132.127292 Z" id="Path" fill="#FFFFFF" fill-rule="nonzero"></path>
            <line x1="236.652473" y1="125.701397" x2="198.50871" y2="133.664599" id="Path" stroke="#606060" stroke-width="1.111" stroke-linecap="round"></line>
            <path d="M214.72582,135.531101 C210.813047,135.531101 208.783531,134.166317 208.14461,131.106648 C207.536026,128.19052 208.380526,124.520909 210.404608,121.291433 C212.623401,117.747704 215.822991,115.384464 219.408378,114.635055 C220.233093,114.463622 221.073271,114.377586 221.915614,114.378305 C228.864963,114.378305 235.252822,120.104153 236.321465,125.22413 C236.874352,127.872644 235.934761,129.79122 233.364132,131.262416 C230.907611,132.666142 227.149701,133.52649 223.511334,134.286766 C219.834477,135.056551 217.081363,135.530196 214.726726,135.530196 L214.72582,135.531101 Z" id="Path" fill="#262626" fill-rule="nonzero"></path>
            <path d="M221.915614,114.596112 C228.763986,114.596112 235.057206,120.230941 236.109095,125.268959 C236.639794,127.81242 235.733712,129.657187 233.256362,131.074951 C230.827463,132.464639 227.088118,133.319101 223.466505,134.075302 C219.803233,134.840106 217.062798,135.314203 214.727179,135.314203 C210.936666,135.314203 208.972808,134.00104 208.358791,131.062725 C207.770132,128.242594 208.625046,124.542191 210.590715,121.406448 C212.779622,117.913887 215.927591,115.584608 219.454566,114.848331 C220.264725,114.680204 221.090004,114.595688 221.917425,114.596112 M221.917425,114.16231 C221.060166,114.161416 220.205101,114.248971 219.365814,114.423591 C211.467818,116.07229 206.692885,125.205565 207.934051,131.151476 C208.658554,134.628641 211.179827,135.748 214.726273,135.748 C217.243471,135.748 220.277783,135.184698 223.556162,134.500042 C231.454611,132.851343 237.774548,131.125666 236.534741,125.180207 C235.427609,119.876387 228.915679,114.16231 221.91652,114.16231 L221.917425,114.16231 Z" id="Shape" fill="#606060" fill-rule="nonzero"></path>
            <path d="M224.359456,112.45611 C224.605787,113.637051 225.646356,113.464529 226.919218,113.198727 C228.192081,112.932924 229.214536,112.67482 228.968205,111.493879 C228.721874,110.312938 227.29913,108.656994 226.024909,108.922796 C224.750688,109.188599 224.112672,111.278792 224.359456,112.45611 Z" id="Path" fill="#262626" fill-rule="nonzero"></path>
            <path d="M211.106019,115.381294 C211.35235,116.562235 210.329894,116.82034 209.057031,117.086142 C207.784169,117.351944 206.7436,117.524014 206.497269,116.343526 C206.250938,115.163037 206.891671,113.075561 208.164533,112.81157 C209.437396,112.547579 210.859687,114.200353 211.106019,115.381294 Z" id="Path" fill="#262626" fill-rule="nonzero"></path>
            <path d="M220.76637,97.5068815 C221.648777,97.1285207 222.58572,96.892833 223.542125,96.8086411 C223.729892,97.205005 223.919471,97.6318584 224.11086,98.0892014 C224.421491,98.833629 225.369233,101.177851 225.644997,101.977975 C227.204491,106.502048 227.433163,109.928045 226.21328,110.437009 C224.993397,110.945973 222.718002,108.37489 220.598376,104.084923 C220.223445,103.325552 219.223177,101.003518 218.912546,100.25909 C218.716628,99.7899739 218.543049,99.3453097 218.391809,98.9250976 C219.107805,98.3360605 219.908266,97.857982 220.76637,97.5068815 Z" id="Path" fill="#FFFFFF" fill-rule="nonzero"></path>
            <g id="Clipped" transform="translate(232.409598, 118.114032)">
                <mask id="mask-4" fill="white">
                    <use xlink:href="#path-3"></use>
                </mask>
                <g id="Path"></g>
                <path d="M-8.83079482,-21.0617762 C-10.7137433,-20.8894001 -12.4986836,-20.1442922 -13.9453383,-18.9267543" id="Path" stroke="#333333" stroke-width="1.111" stroke-linecap="round" mask="url(#mask-4)"></path>
            </g>
            <path d="M218.390904,98.9250976 C216.939179,94.906366 217.429125,93.0516364 218.728703,92.5091642 C220.028282,91.9666921 221.699169,92.9271123 223.541219,96.8109051 C222.584814,96.8950971 221.647872,97.1307848 220.765465,97.5091456 C219.9075,97.8595484 219.107047,98.3368592 218.390904,98.9250976 Z" id="Path" fill="#D4D0D0" fill-rule="nonzero"></path>
            <path d="M203.691176,101.086383 C202.784317,101.401643 201.933289,101.858948 201.169903,102.441205 C201.297898,102.860511 201.445516,103.303666 201.612756,103.770669 C201.884445,104.53004 202.764717,106.900525 203.100252,107.678008 C204.997094,112.070312 207.137097,114.755957 208.381432,114.309934 C209.625767,113.863912 209.573693,110.43067 208.248304,105.832788 C208.013746,105.017721 207.187812,102.629576 206.91567,101.870658 C206.744204,101.391882 206.572738,100.946312 206.401272,100.533949 C205.475359,100.581493 204.561822,100.767711 203.691176,101.086383 L203.691176,101.086383 Z" id="Path" fill="#FFFFFF" fill-rule="nonzero"></path>
            <g id="Clipped" transform="translate(215.187691, 121.839339)">
                <mask id="mask-6" fill="white">
                    <use xlink:href="#path-5"></use>
                </mask>
                <g id="Path"></g>
                <path d="M-13.8814914,-19.1925566 C-12.3742639,-20.334539 -10.5532061,-20.9870728 -8.66370615,-21.062229" id="Path" stroke="#333333" stroke-width="1.111" stroke-linecap="round" mask="url(#mask-6)"></path>
            </g>
            <path d="M206.401272,100.533949 C204.765252,96.586309 203.153232,95.5466461 201.827843,96.0216489 C200.502454,96.4966516 199.9147,98.3310045 201.169903,102.441205 C201.933289,101.858948 202.784317,101.401643 203.691176,101.086383 C204.561822,100.767711 205.475359,100.581493 206.401272,100.533949 Z" id="Path" fill="#D4D0D0" fill-rule="nonzero"></path>
            <path d="M227.457685,119.062022 C228.564676,119.062022 229.46207,119.959416 229.46207,121.066407 L229.46207,122.916608 C229.46207,124.0236 228.564676,124.920993 227.457685,124.920993 C226.350694,124.920993 225.4533,124.0236 225.4533,122.916608 L225.4533,121.066407 C225.4533,119.959416 226.350694,119.062022 227.457685,119.062022 Z" id="Rectangle" fill="#1EEFF4" fill-rule="nonzero" transform="translate(227.457685, 121.991508) rotate(168.208000) translate(-227.457685, -121.991508) "></path>
            <path d="M220.438967,120.527288 C221.545959,120.527288 222.443352,121.424682 222.443352,122.531673 L222.443352,124.381875 C222.443352,125.488866 221.545959,126.386259 220.438967,126.386259 C219.331976,126.386259 218.434582,125.488866 218.434582,124.381875 L218.434582,122.531673 C218.434582,121.424682 219.331976,120.527288 220.438967,120.527288 Z" id="Rectangle" fill="#1EEFF4" fill-rule="nonzero" transform="translate(220.438967, 123.456774) rotate(168.208000) translate(-220.438967, -123.456774) "></path>
            <path d="M494.829829,181.152648 C495.169893,181.542069 494.248415,184.031645 494.237095,184.523402 C494.211003,186.076559 493.895109,187.611188 493.305655,189.04838 C492.711109,190.601083 489.751058,201.104123 483.912917,209.649191 C483.270825,210.588782 483.269467,211.460451 482.564434,212.394608 C481.495338,213.812371 480.431223,214.826676 478.330615,214.378389 C475.844662,213.84769 473.580135,213.16077 471.978529,211.145291 C471.040749,209.965709 467.13341,204.950785 466.65071,204.518799 C465.596104,203.578303 464.371693,202.464378 464.014422,201.037559 C463.890969,200.486699 463.730922,199.944685 463.535344,199.415123 C463.315728,198.862236 462.669562,198.269954 462.525567,197.75601 C462.450399,197.48749 462.525567,197.442662 462.538245,197.185916 C462.613838,196.706098 462.739814,196.235588 462.914082,195.78219 C463.372632,194.152056 463.892011,192.54079 464.472218,190.948392 C466.057069,186.580087 468.059417,182.216763 470.97011,178.560736 C473.732281,175.093986 477.626488,172.261629 482.271916,172.838515 C487.378309,173.474267 491.598543,177.455868 494.829829,181.152648 Z" id="Path" fill="#547D97" fill-rule="nonzero"></path>
            <circle id="Oval" fill="#6B8EA6" fill-rule="nonzero" cx="474.328185" cy="181.053482" r="20.4368917"></circle>
            <path d="M423.225315,177.909136 C422.898382,178.407232 423.796314,179.921445 423.98061,180.382863 C424.503158,181.696026 424.488215,183.160429 425.014386,184.474951 C425.268868,185.108891 425.651496,185.448503 425.83217,186.140404 C426.324832,188.024566 429.470537,197.969285 435.68859,205.981391 C436.354681,206.841739 437.082807,208.154902 438.114772,208.588699 C438.643207,208.810578 439.491782,208.751259 440.099006,208.786126 C441.03588,208.840011 442.418324,208.818276 443.194901,208.259955 C448.55804,204.403331 455.828435,195.051347 456.795648,192.946211 C457.169673,192.131144 457.720748,191.571012 458.156809,190.808472 C458.394537,190.38826 458.265485,189.609871 458.954216,189.716282 C459.066967,188.786654 457.951231,187.203613 457.532377,186.374962 C456.60456,184.540156 455.5975,182.744292 454.506216,181.001408 C451.888493,176.821927 448.721506,172.64471 444.541573,169.918765 C440.224436,167.103615 435.258869,166.8437 430.87698,169.700508 C427.732181,171.75176 425.260717,174.796034 423.225315,177.909136 Z" id="Path" fill="#547D97" fill-rule="nonzero"></path>
            <circle id="Oval" fill="#6B8EA6" fill-rule="nonzero" cx="443.809371" cy="176.399451" r="20.4368917"></circle>
            <path d="M442.769256,208.389913 C442.824046,207.333949 435.383846,203.098772 429.459669,205.805246 C427.376285,206.768578 425.402708,207.953483 423.573076,209.339466 C422.787443,209.928125 422.023544,210.553915 421.296323,211.223176 C420.819509,211.661953 419.739999,212.41272 419.603249,213.101904 C419.539558,213.389581 419.660997,213.686591 419.907993,213.847237 C420.100935,213.926317 420.315255,213.936393 420.514765,213.875765 C421.309543,213.719768 422.084746,213.476805 422.826385,213.151261 C422.698691,213.408007 422.350476,213.535248 422.351835,213.830483 C422.36764,214.021439 422.503295,214.181129 422.689182,214.227602 C422.863801,214.261689 423.044099,214.252674 423.214447,214.201339 C424.127624,214.002704 425.036574,213.785202 425.941298,213.548833 C425.951957,213.753605 426.010421,213.953036 426.112009,214.131152 C426.40815,214.563591 427.44419,214.094927 427.839498,214.005723 C428.528682,213.849954 429.215904,213.686639 429.901164,213.515777 C431.287683,213.171336 432.666353,212.797462 434.037174,212.394155 C436.351392,211.769564 438.610265,210.955522 440.790908,209.960275 C441.311192,209.706246 442.728955,209.168302 442.769256,208.389913 Z" id="Path" fill="#466981" fill-rule="nonzero"></path>
            <path d="M474.535574,214.190471 C474.180115,213.194278 480.089801,207.000677 486.54196,207.890911 C488.81407,208.215358 491.044655,208.783441 493.195168,209.585344 C494.117552,209.924955 495.028162,210.303961 495.917038,210.735494 C496.500263,211.018956 497.749579,211.427848 498.078776,212.048657 C498.222349,212.306105 498.191322,212.625583 498.000892,212.850592 C497.838512,212.981415 497.636151,213.052545 497.427628,213.052095 C496.621402,213.130457 495.809006,213.11998 495.005069,213.02085 C495.201138,213.229598 495.571087,213.251786 495.654858,213.535248 C495.694615,213.722605 495.610444,213.914448 495.445658,214.012062 C495.288347,214.094974 495.113158,214.138189 494.935335,214.137945 C494.002839,214.210093 493.069738,214.262921 492.136034,214.29643 C492.184146,214.495703 492.185231,214.703437 492.139204,214.903202 C491.980266,215.401298 490.852757,215.250963 490.448846,215.279038 C489.743662,215.327942 489.038328,215.368997 488.332842,215.402204 C486.906174,215.47073 485.478448,215.508766 484.049667,215.516313 C481.653475,215.58284 479.255874,215.451988 476.881155,215.125081 C476.310608,215.032707 474.797754,214.924484 474.535574,214.190471 Z" id="Path" fill="#466981" fill-rule="nonzero"></path>
            <circle id="Oval" fill="#BADCF2" fill-rule="nonzero" cx="464.582252" cy="139.334293" r="29.2522909"></circle>
            <path d="M492.591113,144.960517 C493.535723,145.295635 494.338174,145.942227 494.866507,146.793965 C495.216986,147.419302 495.144536,148.754653 495.245966,149.553871 C495.738629,153.448079 496.279743,157.445075 496.397022,161.390451 C496.578147,167.442321 496.532866,171.703308 496.748209,179.401613 C496.770643,182.3163 496.226515,185.20765 495.145441,187.914532 C494.946656,188.705147 494.901827,192.112578 493.279844,190.895412 C492.398667,195.016027 486.782404,198.241427 483.631719,200.329356 C481.060149,201.989465 478.344739,203.415366 475.518183,204.589891 C473.125056,205.607819 466.791082,206.474054 455.381507,204.4948 C443.971932,202.515546 438.763203,198.759447 437.200539,197.501075 C436.054464,199.800921 434.076116,196.561484 433.36882,195.439862 C433.449421,195.568461 432.878874,196.098255 431.746384,195.473823 C430.280623,194.666001 430.708985,192.864704 431.056747,192.140653 C424.608664,189.766092 423.406893,178.873178 423.401,174.184734 C423.396931,170.769604 425.176947,167.225875 426.111104,163.973306 C427.182916,160.243018 428.548153,156.656724 429.675662,152.992094 C430.706705,149.488541 431.967197,146.056638 433.448968,142.718631 C434.500359,140.614735 435.402038,138.439297 436.147291,136.208512 C436.683424,134.45476 436.733687,134.826069 438.711129,135.178359 C440.348507,135.470273 441.98649,135.760075 443.625076,136.047763 L460.995052,139.120112 L479.803622,142.446489 C482.670846,142.953642 485.536258,143.470304 488.403934,143.975645 C489.830854,144.153309 491.234607,144.483488 492.591113,144.960517 L492.591113,144.960517 Z" id="Path" fill="#75A2C1" fill-rule="nonzero"></path>
            <circle id="Oval" fill="#75A2C1" fill-rule="nonzero" cx="464.577723" cy="139.360556" r="29.2255748"></circle>
            <polygon id="Rectangle" fill="#FFFFFF" fill-rule="nonzero" transform="translate(467.995970, 110.412143) rotate(-170.168000) translate(-467.995970, -110.412143) " points="452.224203 105.821506 483.767736 105.821506 483.767736 115.00278 452.224203 115.00278"></polygon>
            <path d="M439.515781,123.605317 C439.354126,124.210731 450.550878,133.660523 454.422898,135.399332 C456.163518,136.180891 459.35858,138.840725 464.128531,139.429384 C464.970314,139.533532 466.014958,139.625 467.156504,139.695186 C468.831919,140.445953 474.43188,141.144194 476.086918,141.107063 C477.154857,141.132961 478.205909,140.837145 479.10357,140.258035 C479.207424,140.222475 479.31326,140.192992 479.420541,140.169736 C479.595499,140.2655 479.785056,140.331745 479.981578,140.365805 C480.827966,140.539439 481.667136,140.039158 481.916909,139.212033 C481.943172,139.190298 481.970341,139.170374 481.997963,139.151809 C482.398143,139.230162 482.808856,139.238741 483.211959,139.177166 C483.478164,139.179225 483.741366,139.120856 483.981745,139.006455 C484.059629,138.982456 484.137966,138.958004 484.216303,138.929477 C485.529466,138.459002 486.441435,137.552467 486.452302,136.777701 C489.838452,135.567779 492.855104,134.317558 493.279844,133.809952 C493.946388,133.012545 494.060497,131.840208 494.185474,130.735792 C494.407806,131.002047 494.732474,131.281887 494.955259,131.098044 C495.292153,130.818205 495.238721,130.03891 495.210647,129.655829 C495.168177,129.124096 495.03972,128.602774 494.830282,128.112183 C494.824848,128.099051 494.818962,128.085467 494.813075,128.072335 C495.298983,126.897475 495.709906,125.692986 496.043373,124.466118 C496.778292,121.179135 497.356536,117.700612 497.792597,114.361555 C498.471819,109.177731 497.633659,102.954697 497.504607,97.8623412 C497.449816,95.7128292 497.299482,97.2075709 498.438311,95.7467903 C499.71389,94.1107703 497.729203,92.898585 496.262536,92.8274931 C499.60612,92.9995627 496.624787,82.8080593 493.619908,89.032452 C494.355279,87.3294154 492.295878,86.1892277 492.174976,87.8641897 C491.014412,87.0717638 492.157769,85.4099333 490.923396,84.7257301 C490.108329,84.2729153 489.389259,84.1986537 488.642568,83.679275 C486.901495,82.4679954 485.505919,81.0647222 483.415273,80.3615008 C481.152081,79.5965598 478.843755,78.9722954 476.503508,78.4922812 C473.68383,77.9258098 473.66617,79.3354224 470.901735,79.6641659 C468.57789,79.940383 466.226422,80.3886697 463.883105,80.8057121 C452.872007,82.7722869 450.402808,92.2270606 449.506235,93.9454929 C447.373912,98.0517878 445.735387,102.396159 444.624891,106.887846 C444.083777,109.011548 443.754581,111.189587 443.285464,113.32642 C442.976192,114.737844 439.425218,117.509524 441.244628,120.738094 C441.246892,120.737641 439.074739,120.69734 439.515781,123.605317 Z M475.695686,110.915634 C475.943984,109.48259 477.031094,108.340232 478.450081,108.021259 C479.869068,107.702286 481.340475,108.269517 482.178164,109.458444 C483.015852,110.64737 483.054846,112.223844 482.276962,113.452732 C481.499078,114.68162 480.057514,115.320903 478.624492,115.072474 C476.668315,114.733265 475.357225,112.872847 475.695686,110.91654 L475.695686,110.915634 Z M454.156643,107.182629 C454.495638,105.225874 456.356707,103.914419 458.313463,104.253407 C460.270219,104.592395 461.581681,106.453459 461.242701,108.410216 C460.90372,110.366973 459.04266,111.678442 457.085902,111.339469 C456.146224,111.176687 455.3097,110.647283 454.760356,109.867723 C454.211012,109.088163 453.99385,108.122305 454.156643,107.182629 L454.156643,107.182629 Z" id="Shape" fill="#4D758D" fill-rule="nonzero"></path>
            <path d="M450.228927,116.410089 C451.433415,123.715351 457.688146,129.855067 465.953375,131.287774 C470.454354,132.067521 476.512111,131.251096 479.979314,129.044982 C491.275233,121.85881 491.407002,113.278422 491.797781,109.097583 C492.147807,105.355521 491.254404,100.24143 487.0713,98.571902 C483.136339,97.0010874 479.972069,98.7507639 477.245218,101.643798 C476.933229,101.976617 476.636635,102.32302 476.363135,102.67531 C474.335753,105.302049 473.045156,108.421708 472.624243,111.713041 C472.626967,112.155144 472.460788,112.581604 472.159655,112.905303 C471.922295,113.061417 471.647002,113.150156 471.363154,113.162049 C470.604352,113.253172 469.840058,113.290547 469.075986,113.273894 C468.247128,113.246455 467.420945,113.164926 466.602711,113.029827 C466.139935,112.947716 465.681082,112.846135 465.226154,112.725082 C464.822279,112.647019 464.445247,112.466455 464.131248,112.200723 C463.413084,111.495237 463.735488,110.303429 464.056081,109.347989 C464.87519,106.908183 465.354987,104.367348 465.481995,101.796849 C465.521935,101.046788 465.510588,100.294874 465.448034,99.5463595 C465.25604,97.3416041 464.539687,95.1961674 462.814462,93.9002114 C459.030742,91.0615152 454.22864,94.021113 452.160635,97.4638641 C448.88769,102.912585 448.885878,108.265762 450.228927,116.410089 Z M475.695686,110.91654 C475.943984,109.483495 477.031094,108.341137 478.450081,108.022164 C479.869068,107.703191 481.340475,108.270422 482.178164,109.459349 C483.015852,110.648276 483.054846,112.22475 482.276962,113.453638 C481.499078,114.682526 480.057514,115.321809 478.624492,115.07338 C476.667898,114.734185 475.35667,112.873166 475.695686,110.91654 L475.695686,110.91654 Z M454.156643,107.183534 C454.495638,105.22678 456.356707,103.915324 458.313463,104.254312 C460.270219,104.5933 461.581681,106.454365 461.242701,108.411122 C460.90372,110.367879 459.04266,111.679348 457.085902,111.340375 C456.146039,111.177602 455.309359,110.648066 454.759991,109.868301 C454.210623,109.088536 453.993586,108.122443 454.156643,107.182629 L454.156643,107.183534 Z" id="Shape" fill="#CDE8F7" fill-rule="nonzero"></path>
            <path d="M492.222974,91.0882313 L466.14084,82.5114656 C463.701527,81.3092422 460.06316,78.4814136 459.727171,75.1305839 C459.370806,71.5741762 464.77017,65.991875 468.262278,67.1424774 C467.854744,70.1550545 468.181677,72.9126968 470.983695,74.7117301 C472.65911,75.7876182 475.493278,76.3522783 477.434948,76.766151 C480.004219,77.314057 482.573943,77.2026645 485.1328,77.9172063 C487.822067,78.6679733 491.2458,80.0671711 493.222337,82.3249059 C495.379999,84.7882186 494.978805,87.342547 494.919487,88.8291381 L492.222974,91.0882313 Z" id="Path" fill="#4D758D" fill-rule="nonzero"></path>
            <path d="M455.163849,101.310177 C456.433814,100.25168 458.219565,100.071083 459.675744,100.85388 C460.056485,101.058555 460.199215,101.533128 459.994541,101.913869 C459.789866,102.29461 459.315292,102.437341 458.934551,102.232666 C458.041052,101.752348 456.94533,101.863161 456.166089,102.512646 C455.834036,102.789407 455.340495,102.744584 455.063734,102.412531 C454.786974,102.080479 454.831796,101.586938 455.163849,101.310177 Z" id="Path" fill="#608197" fill-rule="nonzero"></path>
            <path d="M479.490863,104.621444 C481.083808,104.177848 482.786463,104.74703 483.792403,106.059407 C484.055373,106.402485 483.990433,106.893784 483.647355,107.156754 C483.304277,107.419724 482.812978,107.354783 482.550008,107.011706 C481.932815,106.206498 480.888153,105.857278 479.910804,106.129445 C479.494381,106.245409 479.062796,106.001838 478.946833,105.585415 C478.830869,105.168992 479.07444,104.737408 479.490863,104.621444 Z" id="Path" fill="#608197" fill-rule="nonzero"></path>
            <path d="M461.307042,113.621656 C461.056635,115.065682 464.796433,119.43444 466.638031,119.753674 C468.462875,120.070645 473.701942,117.257306 473.952802,115.814185 C474.179209,113.978021 471.821855,111.286037 468.329747,110.679265 C464.837639,110.072493 461.687859,111.424145 461.307042,113.621656 Z" id="Path" fill="#3C4D52" fill-rule="nonzero"></path>
            <path d="M470.076707,118.284743 C470.400016,117.229684 468.454724,117.922491 467.13341,117.692914 C465.812097,117.463337 464.43237,116.076818 464.190114,116.895507 C463.947858,117.714196 466.014052,119.767259 466.963605,119.515041 C467.913157,119.262823 469.75385,119.338896 470.076707,118.284743 Z" id="Path" fill="#FF8E8C" fill-rule="nonzero"></path>
            <path d="M466.753499,119.086225 C469.138927,119.478816 471.249497,116.071837 474.127135,115.373143 C474.056043,117.435715 468.071643,120.792884 466.372229,120.326938 C464.882468,120.033967 460.691667,115.598645 461.290288,113.148464 C463.226524,114.522757 464.368523,118.693635 466.753499,119.086225 Z" id="Path" fill="#C38B32" fill-rule="nonzero"></path>
            <path d="M467.332196,116.434994 C466.264459,116.249793 461.27127,113.259404 461.290234,113.150275 C461.693293,110.825977 466.346418,108.667409 468.610492,109.058188 C470.709742,109.42044 474.542367,112.973225 474.127135,115.374955 C474.127135,115.374955 468.399481,116.622007 467.332196,116.434994 Z" id="Path" fill="#F0BC4A" fill-rule="nonzero"></path>
            <ellipse id="Oval" fill="#3C4D52" fill-rule="nonzero" transform="translate(469.316527, 110.846709) rotate(-23.992000) translate(-469.316527, -110.846709) " cx="469.316527" cy="110.846709" rx="1" ry="1"></ellipse>
            <ellipse id="Oval" fill="#3C4D52" fill-rule="nonzero" transform="translate(466.816635, 110.414030) rotate(-29.200000) translate(-466.816635, -110.414030) " cx="466.816635" cy="110.41403" rx="1" ry="1"></ellipse>
            <path d="M470.195797,78.9369453 C468.999305,79.4085353 467.767246,79.7843458 466.511243,80.0608317 C464.861185,80.4230836 462.999211,80.5765878 461.608164,79.6170732 C460.850128,79.0008247 460.208752,78.2536264 459.714492,77.4109593 C459.629478,77.2607387 459.501841,77.13909 459.347712,77.0613863 C459.181126,77.012876 459.002745,77.024907 458.844182,77.0953474 C458.302147,77.3163732 457.87089,77.7448077 457.646311,78.2853802 C457.421731,78.8259527 457.422447,79.4338489 457.648298,79.9738913 C458.141413,81.0221576 459.382579,81.4776893 460.526842,81.6597209 C462.621559,81.9897858 464.766498,81.7501732 466.736745,80.9660086" id="Path" fill="#4D758D" fill-rule="nonzero"></path>
            <path d="M441.917511,119.556247 C441.130431,119.487019 440.339503,119.63618 439.631702,119.987327 C439.337122,120.12239 439.072835,120.315523 438.854671,120.555156 C438.693922,120.741263 438.201712,121.516935 438.570304,121.726136 C438.951121,121.941675 439.660682,121.616102 440.009349,121.454447 C440.491497,121.226144 440.933563,120.921392 441.318437,120.551987 C441.599927,120.222419 441.937113,119.944854 442.314629,119.731939" id="Path" fill="#4D758D" fill-rule="nonzero"></path>
            <path d="M485.841002,160.061892 C485.845581,161.338817 485.713666,162.612575 485.447506,163.861461 C485.161392,165.122353 484.711073,166.340254 484.10808,167.48398 C483.49339,168.638629 482.713757,169.697564 481.793743,170.62742 C480.864351,171.585333 479.781393,172.381176 478.589626,172.982057 C478.36314,173.093116 478.09461,173.07491 477.885188,172.934297 C477.675766,172.793685 477.557268,172.552028 477.574331,172.300357 C477.591394,172.048685 477.741426,171.825235 477.967911,171.714176 C477.983306,171.706931 477.998249,171.700139 478.013192,171.693799 L478.026324,171.688818 C479.118248,171.226267 480.126213,170.58642 481.009468,169.795147 C481.920185,168.995994 482.709584,168.068392 483.352785,167.04158 C483.999545,166.000545 484.506951,164.879167 484.862017,163.706146 C485.205586,162.514092 485.420986,161.288783 485.504561,160.051024 L485.504561,160.046949 C485.510059,159.954884 485.588752,159.884467 485.68086,159.889191 C485.772968,159.893914 485.844045,159.972012 485.840097,160.064156 L485.841002,160.061892 Z" id="Path" fill="#608197" fill-rule="nonzero"></path>
            <path d="M484.505651,177.362135 C483.399693,179.497008 481.90733,181.408216 480.104291,182.998774 L480.099763,183.00285 C479.778157,183.287069 479.287038,183.25676 479.002819,182.935154 C478.7186,182.613547 478.748908,182.122429 479.070515,181.83821 C479.107952,181.805715 479.148096,181.776477 479.190511,181.750817 C481.167343,180.581139 482.909862,179.05465 484.329506,177.248932 C484.362755,177.205562 484.423702,177.194927 484.469674,177.224473 C484.515647,177.254018 484.53129,177.313875 484.505651,177.362135 L484.505651,177.362135 Z" id="Path" fill="#608197" fill-rule="nonzero"></path>
            <path d="M474.58629,180.912656 C473.547263,182.166135 472.292935,183.224187 470.882264,184.037079 L470.878189,184.039796 C470.582841,184.210602 470.204949,184.109641 470.034142,183.814294 C469.863336,183.518946 469.964296,183.141054 470.259644,182.970247 C470.290483,182.952505 470.322744,182.937359 470.356093,182.924966 C471.793941,182.397052 473.125915,181.616514 474.289243,180.620138 C474.371468,180.550657 474.493045,180.555098 474.569982,180.630393 C474.646918,180.705688 474.653981,180.827141 474.58629,180.910845 L474.58629,180.912656 Z" id="Path" fill="#608197" fill-rule="nonzero"></path>
            <path d="M491.092296,180.98239 C490.535367,182.512795 489.709771,183.93152 488.654341,185.171833 L488.651171,185.175455 C488.508324,185.343701 488.286569,185.422959 488.06944,185.383373 C487.85231,185.343786 487.672794,185.19137 487.598512,184.983537 C487.52423,184.775705 487.566469,184.54403 487.709316,184.375784 C487.732218,184.34865 487.757528,184.323643 487.784936,184.30107 C488.961486,183.320548 489.953478,182.137795 490.714195,180.808509 C490.767407,180.713569 490.884631,180.675443 490.98351,180.720915 C491.08239,180.766388 491.129741,180.8802 491.092296,180.98239 L491.092296,180.98239 Z" id="Path" fill="#608197" fill-rule="nonzero"></path>
            <path d="M491.198254,165.040138 C491.018676,167.317086 490.159046,169.487538 488.730866,171.269965 L488.730866,171.269965 C488.539636,171.500501 488.19888,171.535129 487.965182,171.347776 C487.731484,171.160422 487.691169,170.820292 487.874594,170.583497 C487.885461,170.569913 487.897234,170.556781 487.909008,170.544555 C489.382959,169.013556 490.362946,167.075038 490.721893,164.980367 C490.743564,164.853726 490.860808,164.766379 490.988354,164.781854 C491.115901,164.797328 491.208856,164.910178 491.199613,165.038327 L491.198254,165.040138 Z" id="Path" fill="#608197" fill-rule="nonzero"></path>
            <path d="M483.056644,188.598735 C481.760347,190.479209 479.928929,191.9268 477.799916,192.753764 L477.799916,192.753764 C477.519701,192.85468 477.21014,192.713681 477.102351,192.436036 C476.994563,192.158392 477.127893,191.845451 477.402798,191.730856 C477.419099,191.724516 477.435853,191.719082 477.452155,191.714554 C479.494916,191.1279 481.314421,189.941294 482.674921,188.308481 C482.755752,188.205408 482.904214,188.185998 483.008827,188.264827 C483.113439,188.343657 483.135706,188.491718 483.058908,188.59783 L483.056644,188.598735 Z" id="Path" fill="#608197" fill-rule="nonzero"></path>
            <circle id="Oval" fill="#5883A0" fill-rule="nonzero" cx="437.273895" cy="135.170208" r="4.87953261"></circle>
            <path d="M488.909276,141.856924 C489.992279,142.649257 490.78491,143.775518 491.165199,145.062401 C491.272465,145.302313 491.253281,145.579878 491.114031,145.802753 C490.990905,145.919744 490.830692,145.989917 490.661216,146.001086 C489.8258,146.120136 488.980677,145.861821 488.354577,145.296053 C488.535703,146.176325 489.316809,146.78038 489.989692,147.379001 C490.636906,147.902652 491.15552,148.567648 491.505716,149.322935 C491.852392,150.093002 491.789813,150.985599 491.33908,151.69976 C490.694724,152.60222 489.329035,152.777913 488.34054,152.275741 C487.368988,151.711521 486.676156,150.768331 486.428303,149.672508 C486.15617,148.442626 486.089915,147.176124 486.232234,145.92456 C486.304232,144.843238 486.449133,143.655958 487.247445,142.922851 C487.894644,142.427492 488.67312,142.133202 489.486162,142.07654" id="Path" fill="#75A2C1" fill-rule="nonzero"></path>
            <path d="M444.853562,135.580005 C444.216525,134.850962 443.381064,134.323095 442.449115,134.060812 C441.993095,133.907847 441.501166,133.898207 441.039503,134.03319 C440.571955,134.181371 440.246519,134.605523 440.224436,135.095493 C440.244813,135.758414 440.933997,136.168665 441.534429,136.451221 C441.068371,136.703054 440.551633,136.846825 440.022481,136.871886 C439.487413,136.900684 438.994361,137.170863 438.682149,137.606352 C438.429931,138.07094 438.790824,138.814009 439.307033,138.702164 C437.545584,139.939254 435.665949,141.336187 435.081818,143.407815 C435.041292,143.519187 435.03037,143.639171 435.050121,143.75603 C435.118502,143.934778 435.259809,144.07592 435.438636,144.144092 C436.341126,144.557175 437.363605,144.62563 438.313105,144.336538 C439.253097,144.045402 440.14138,143.60806 440.945317,143.040582 C442.889251,141.765909 444.794243,140.038873 445.156495,137.742649 C445.224952,137.446271 445.198823,137.135893 445.081781,136.855132 C444.95746,136.649938 444.7911,136.473393 444.593646,136.337112 L442.824499,134.925688" id="Path" fill="#75A2C1" fill-rule="nonzero"></path>
            <path d="M433.136526,190.559424 C433.136526,190.559424 429.051683,189.744357 429.378163,192.838441 C429.704642,195.932524 433.136526,190.559424 433.136526,190.559424 Z" id="Path" fill="#75A2C1" fill-rule="nonzero"></path>
            <circle id="Oval" fill="#3C4D52" fill-rule="nonzero" cx="479.681362" cy="111.382034" r="2.53259335"></circle>
            <circle id="Oval" fill="#FFFFFF" fill-rule="nonzero" cx="481.317835" cy="110.673378" r="1"></circle>
            <circle id="Oval" fill="#3C4D52" fill-rule="nonzero" cx="458.142772" cy="107.649028" r="2.53259335"></circle>
            <circle id="Oval" fill="#FFFFFF" fill-rule="nonzero" cx="459.779245" cy="106.940826" r="1"></circle>
            <path d="M458.276805,104.466645 C456.395498,104.140698 454.587475,105.341938 454.158907,107.202553 C454.166605,107.137347 454.175661,107.072595 454.186981,107.007389 C454.406349,105.74158 455.284354,104.688954 456.490261,104.246027 C457.696167,103.8031 459.04677,104.037162 460.03331,104.860044 C461.01985,105.682926 461.492448,106.969614 461.273081,108.235423 C461.261911,108.300629 461.24878,108.364928 461.233686,108.428322 C461.456254,106.532144 460.157959,104.792667 458.276805,104.466645 L458.276805,104.466645 Z" id="Path" fill="#547D97" fill-rule="nonzero"></path>
            <path d="M479.815395,108.199651 C477.934196,107.87373 476.126312,109.075009 475.69795,110.935558 C475.705195,110.870806 475.714704,110.8056 475.726025,110.740848 C475.934607,109.464933 476.812094,108.399208 478.024252,107.949609 C479.236409,107.500009 480.596621,107.735751 481.586784,108.567042 C482.576947,109.398332 483.044622,110.69719 482.811671,111.968882 C482.800351,112.033634 482.787219,112.097934 482.772729,112.161781 C482.995058,110.265417 481.696671,108.525884 479.815395,108.199651 L479.815395,108.199651 Z" id="Path" fill="#547D97" fill-rule="nonzero"></path>
            <path d="M409.331144,132.539807 L391.010256,108.743029 C390.92951,108.648661 390.920884,108.512274 390.989097,108.408484 C391.057311,108.304695 391.185929,108.258509 391.304586,108.295195 L420.465861,115.173452 C420.465861,115.173452 436.006466,137.022221 409.330692,132.539807" id="Path" fill="#E7E1BB" fill-rule="nonzero"></path>
            <path d="M492.277312,180.492897 L496.850742,173.386874 C498.739885,170.451275 503.178376,169.973556 506.763764,172.320495 L511.580356,175.472539 C516.325855,178.578396 518.146171,184.245826 515.645274,188.13143 L513.285656,191.799231 C510.785213,195.684835 504.911299,196.316511 500.165799,193.210654 L495.349208,190.05861 C491.762915,187.710765 490.387716,183.428496 492.277312,180.492897 Z" id="Path" fill="#D65858" fill-rule="nonzero"></path>
            <path d="M482.629187,178.373724 L490.99811,165.366165 C491.90057,163.962439 494.065478,163.764106 495.83372,164.921501 L504.415014,170.536405 C507.909839,172.823119 508.39435,176.310699 506.611166,179.082832 L501.432322,187.132521 C499.649138,189.904201 496.273403,190.910355 492.778578,188.62364 L484.197284,183.008736 C482.430854,181.851342 481.728538,179.776544 482.629187,178.373724 Z" id="Path" fill="#B1B1B1" fill-rule="nonzero"></path>
            <path d="M409.331144,132.539807 L487.122468,185.120665 C487.491065,185.379216 487.937038,185.503852 488.386274,185.47386 L494.091741,183.41627 L414.02774,128.742049 C414.02774,128.742049 408.477588,127.897096 409.329786,132.539807" id="Path" fill="#E7B523" fill-rule="nonzero"></path>
            <path d="M418.670903,122.130952 L499.655024,175.35843 L500.931962,168.913063 C500.880853,168.394481 500.583901,167.931957 500.13365,167.669634 L420.466314,115.172999 C420.466314,115.172999 415.868885,115.870334 418.670903,122.130499" id="Path" fill="#E7B523" fill-rule="nonzero"></path>
            <path d="M413.620206,129.388668 L494.090383,183.41627 L499.651855,175.35843 L419.078889,121.484332 C419.078889,121.484332 410.911468,120.417501 413.621112,129.388668" id="Path" fill="#F2CC5C" fill-rule="nonzero"></path>
            <path d="M390.974937,108.905589 L398.121713,117.979998 C399.344313,117.231496 403.494361,115.969048 402.112823,110.82326 L391.44677,108.186972 C391.256834,108.130354 391.052249,108.205045 390.943469,108.370721 C390.83469,108.536396 390.847481,108.753812 390.974937,108.905589" id="Path" fill="#3D3C38" fill-rule="nonzero"></path>
            <path d="M489.743813,144.481439 C488.702339,140.501197 486.834931,140.66738 479.022064,142.712292 C471.209197,144.757203 462.152447,153.722484 463.193921,157.700463 C463.653528,159.000947 472.608394,156.345188 480.421262,154.300276 C488.234129,152.255364 490.785287,148.461682 489.743813,144.481439 Z" id="Path" fill="#5883A0" fill-rule="nonzero"></path>
            <circle id="Oval" fill="#5883A0" fill-rule="nonzero" cx="485.169931" cy="146.242889" r="4.87953261"></circle>
            <path d="M421.340699,140.834921 C419.970029,141.04548 422.257649,144.638566 425.23219,146.841963 C428.206731,149.04536 431.287683,149.927443 432.114975,148.813066 C432.942268,147.698689 433.292294,142.066125 430.316395,139.863181 C427.340496,137.660237 424.928351,140.28294 421.340699,140.834921 Z" id="Path" fill="#5883A0" fill-rule="nonzero"></path>
            <path d="M640,131.667232 C640,131.667232 638.157044,138.943967 633.542861,148.511944 C632.41988,150.834884 631.138414,153.28914 629.675822,155.811319 C626.983074,160.48776 623.89894,164.927641 620.456512,169.083322 C617.963793,172.077813 615.251475,174.882459 612.34207,177.473981 C608.567084,180.844474 604.417823,183.770683 599.975697,186.195194 C596.45461,188.108006 592.751977,189.665811 588.922487,190.845603 C581.374109,193.128751 573.47623,194.033733 565.607051,193.51721 C561.646419,193.283346 557.707505,192.767338 553.820281,191.973111 C555.573324,187.848685 557.59417,183.843295 559.869888,179.982575 C563.337559,173.966766 567.290154,168.243833 571.688355,162.870702 C573.689796,160.443615 575.858779,158.007471 578.208888,155.621137 C582.383314,151.350481 586.961509,147.494122 591.879368,144.106056 C593.75855,142.82459 595.710181,141.60199 597.734264,140.465424 C601.467306,138.35375 605.37977,136.576322 609.425943,135.153907 L609.430471,135.153907 C613.155089,133.850787 616.984937,132.8706 620.87763,132.224195 C627.198847,131.19133 633.629383,131.004032 640,131.667232 Z" id="Path" fill="#566672" fill-rule="nonzero"></path>
            <path d="M588.922487,190.845603 C581.374109,193.128751 573.47623,194.033733 565.607051,193.51721 L559.869888,179.982575 C563.337559,173.966766 567.290154,168.243833 571.688355,162.870702 L588.922487,190.845603 Z" id="Path" fill="#27303D" fill-rule="nonzero"></path>
            <path d="M612.34207,177.473981 C608.567084,180.844474 604.417823,183.770683 599.975697,186.195194 L578.208888,155.621137 C582.383314,151.350481 586.961509,147.494122 591.879368,144.106056 L612.34207,177.473981 Z" id="Path" fill="#27303D" fill-rule="nonzero"></path>
            <path d="M629.675822,155.811319 C626.983074,160.48776 623.89894,164.927641 620.456512,169.083322 L597.734264,140.465424 C601.467306,138.35375 605.37977,136.576322 609.425943,135.153907 L609.430471,135.153907 L629.675822,155.811319 Z" id="Path" fill="#27303D" fill-rule="nonzero"></path>
            <path d="M640,131.667232 C640,131.667232 638.157044,138.943967 633.542861,148.511944 L620.87763,132.224195 C627.198847,131.19133 633.629383,131.004032 640,131.667232 L640,131.667232 Z" id="Path" fill="#27303D" fill-rule="nonzero"></path>
            <polygon id="Path" fill="#6D7D8C" fill-rule="nonzero" points="537.72679 214.269714 518.620268 221.70448 518.622532 222.533132 551.630922 222.023715 551.512284 215.255039"></polygon>
            <circle id="Oval" fill="#6D7D8C" fill-rule="nonzero" cx="544.602783" cy="215.068932" r="6.91493528"></circle>
            <path d="M531.615601,200.927978 C533.533724,205.534916 536.239746,212.923948 537.873954,216.646086 L551.512284,215.255039 L551.18988,197.240254 L531.615601,200.927978 Z" id="Path" fill="#6D7D8C" fill-rule="nonzero"></path>
            <circle id="Oval" fill="#6D7D8C" fill-rule="nonzero" cx="544.602783" cy="215.068932" r="6.91493528"></circle>
            <circle id="Oval" fill="#6D7D8C" fill-rule="nonzero" cx="541.104335" cy="197.487943" r="10.0936954"></circle>
            <path d="M551.18988,197.240254 L550.810874,174.03621 L523.061228,176.070255 C523.026156,177.749292 526.777727,189.29924 531.597488,200.874998 L551.18988,197.240254 Z" id="Path" fill="#6D7D8C" fill-rule="nonzero"></path>
            <circle id="Oval" fill="#6D7D8C" fill-rule="nonzero" cx="536.851046" cy="174.12134" r="13.9598284"></circle>
            <circle id="Oval" fill="#6D7D8C" fill-rule="nonzero" cx="541.104335" cy="197.487943" r="10.0936954"></circle>
            <polygon id="Path" fill="#6D7D8C" fill-rule="nonzero" points="575.728821 214.824412 556.511813 221.968924 556.501398 222.797575 589.513863 222.788066 589.497562 216.018032"></polygon>
            <circle id="Oval" fill="#6D7D8C" fill-rule="nonzero" cx="582.591683" cy="215.727777" r="6.91493528"></circle>
            <path d="M571.163542,200.206644 C572.584928,204.989727 574.497165,212.623279 575.729727,216.49711 L589.438696,216.551448 L591.017661,198.603226 L571.163542,200.206644 Z" id="Path" fill="#6D7D8C" fill-rule="nonzero"></path>
            <circle id="Oval" fill="#6D7D8C" fill-rule="nonzero" cx="582.587155" cy="215.63812" r="6.91493528"></circle>
            <circle id="Oval" fill="#6D7D8C" fill-rule="nonzero" cx="580.962002" cy="197.785895" r="10.0936954"></circle>
            <path d="M590.897213,199.894654 L595.795311,177.208631 L568.30945,172.890589 C567.894219,174.518005 568.925731,186.618123 570.991925,198.985855 L590.897213,199.894654 Z" id="Path" fill="#6D7D8C" fill-rule="nonzero"></path>
            <circle id="Oval" fill="#6D7D8C" fill-rule="nonzero" cx="582.178263" cy="174.124509" r="13.9598284"></circle>
            <circle id="Oval" fill="#6D7D8C" fill-rule="nonzero" cx="581.01634" cy="197.846573" r="10.0936954"></circle>
            <path d="M548.335335,92.4127147 C548.335335,92.4127147 528.147945,85.2478256 523.964388,83.5067526 C519.157306,81.5066695 516.668636,84.7805207 515.994847,86.2938279 C515.093293,88.3210799 515.083331,92.1758925 518.018477,94.089488 C519.944298,95.3446907 542.389424,105.883956 542.389424,105.883956 L548.335335,92.4127147 Z" id="Path" fill="#6D7D8C" fill-rule="nonzero"></path>
            <circle id="Oval" fill="#6D7D8C" fill-rule="nonzero" cx="545.413321" cy="99.1705232" r="7.3645804"></circle>
            <circle id="Oval" fill="#6D7D8C" fill-rule="nonzero" cx="521.236632" cy="88.9554735" r="6.0668131"></circle>
            <circle id="Oval" fill="#394659" fill-rule="nonzero" cx="509.89679" cy="66.5827983" r="4.43984941"></circle>
            <polygon id="Path" fill="#6D7D8C" fill-rule="nonzero" points="526.258348 85.5906064 513.79145 64.5469428 505.873078 68.3714169 515.718178 91.4414269"></polygon>
            <path d="M505.81874,68.339267 L510.188403,78.5013375 L511.540508,75.6033225 L516.122994,79.0573941 L516.203595,73.2649868 L520.307456,75.4724591 L513.799601,64.4812847 C513.799601,64.4812847 507.978214,66.2689976 505.81874,68.339267 Z" id="Path" fill="#394659" fill-rule="nonzero"></path>
            <circle id="Oval" fill="#394659" fill-rule="nonzero" cx="509.89679" cy="66.5827983" r="4.43984941"></circle>
            <path d="M515.512147,49.0502609 C514.106157,48.893587 513.972576,53.2265721 513.28792,54.7557277 C512.886726,55.6491314 511.16603,42.6420254 508.924144,42.19555 C506.682258,41.7490746 507.395894,51.2314699 507.395894,51.2314699 C507.395894,51.2314699 505.116424,41.7952617 503.211885,42.3295832 C501.101768,42.9223178 502.323462,49.9848707 503.321466,53.2641557 C503.321466,53.2641557 500.446092,48.1369334 499.176852,49.5085095 C497.858255,50.9330649 501.490283,61.3269766 505.606822,67.7116657 C507.270464,70.2895405 512.649904,68.375945 514.055441,65.1419415 C516.726143,58.995433 518.180132,49.3468546 515.512147,49.0502609 Z" id="Path" fill="#394659" fill-rule="nonzero"></path>
            <path d="M555.665049,88.3582107 C555.665049,88.3582107 546.612375,91.8109238 543.888241,100.652133 C540.005354,113.255329 540.546015,132.439734 561.859103,133.511094 C561.859103,133.511094 562.764733,139.17128 561.680694,140.201433 C561.650808,140.229508 531.568508,145.106324 536.108429,104.860594 C537.738563,90.4275745 550.66054,82.9656389 554.565162,85.6073606 C555.867457,86.4885383 555.78912,86.383938 555.665049,88.3582107 Z" id="Path" fill="#E9C539" fill-rule="nonzero"></path>
            <path d="M600.044072,96.3186954 C601.743033,99.2239554 603.706439,101.978881 604.945793,105.144962 C606.858153,110.045351 608.231476,115.139325 609.041503,120.3369 C609.132066,120.917861 607.912635,122.264532 608.941431,122.305739 C610.843253,121.179588 613.763909,119.563492 615.676599,118.456812 C616.177865,118.166558 616.42329,117.942868 616.095452,117.297607 C612.036873,109.307689 607.06723,102.025521 600.044072,96.3186954 Z" id="Path" fill="#B89B2D" fill-rule="nonzero"></path>
            <path d="M564.32785,98.8195917 C564.03352,99.2130878 563.258301,99.9883068 562.963519,104.165976 C562.863865,111.055123 563.225719,117.943209 564.046652,124.783994 C564.711837,129.637716 565.621089,134.443893 566.616829,139.238296 C568.009687,145.946295 568.475633,152.793761 569.613104,159.540702 C570.045618,162.235405 570.859171,164.854903 572.029324,167.320514 C573.885865,171.162647 576.817388,173.655846 581.163505,173.858707 C588.991768,174.224581 596.445553,172.953077 602.776357,167.871589 C605.100361,166.069001 606.952231,163.72938 608.173004,161.053556 C608.325937,160.707717 608.288104,160.307245 608.07311,159.996165 C607.858117,159.685084 607.496876,159.508125 607.119304,159.528929 L607.103003,159.528929 C604.952132,159.626284 603.937827,158.717032 603.880772,156.525861 C603.804699,153.603847 603.51852,150.686814 603.64712,147.759366 C603.700929,147.233085 603.618439,146.701812 603.407581,146.216626 C603.384124,146.170994 603.357177,146.127243 603.32698,146.085762 C602.404143,144.761732 602.662248,143.26382 602.828883,141.822511 C602.952049,140.747981 603.915639,140.478103 604.812212,140.388446 C606.341493,140.159998 607.882465,140.018192 609.427754,139.963706 C609.736121,139.967781 610.061695,140.008987 610.381382,139.990422 C610.672743,139.973335 610.944742,139.838903 611.13528,139.617818 C611.325817,139.396733 611.418626,139.10787 611.392517,138.817179 C610.937439,133.554565 610.351043,128.307346 609.4513,123.099976 C609.346247,122.492298 608.033537,112.588332 606.877954,108.300176 C605.686939,103.798965 603.346332,99.6846458 600.085731,96.3608072 C600.05788,96.3321361 600.028558,96.3049306 599.997885,96.2793005 C598.802454,95.27541 599.028861,95.114208 596.411139,93.2680819 C593.793416,91.4219558 574.486298,85.2333355 564.32785,98.8195917 Z" id="Path" fill="#E9C539" fill-rule="nonzero"></path>
            <path d="M603.107817,146.133308 C603.243662,149.378632 603.240039,152.626672 603.398524,155.87426 C603.576933,159.522589 604.479393,160.435917 608.020405,159.85405 C608.239115,159.818278 608.459636,159.795637 608.679251,159.766657 C611.603982,157.675105 612.275054,154.484572 612.718359,151.230644 C612.948389,149.543909 612.940239,147.824118 613.039405,146.11927 C611.068755,144.800674 608.849057,145.347221 606.745279,145.41786 C605.551206,145.458161 604.16197,145.133945 603.107817,146.133308 Z" id="Path" fill="#CFAF33" fill-rule="nonzero"></path>
            <path d="M603.107817,146.133308 C606.417894,145.897844 609.727517,145.552799 613.039405,146.11927 C613.969034,146.424468 614.509695,146.219343 614.49611,145.107229 C614.485696,144.286729 614.625163,143.464417 614.614748,142.643917 C614.575806,139.655339 614.439961,139.536701 611.451836,139.525834 C608.763475,139.498665 606.081905,139.500929 603.459654,140.256677 C602.855147,140.431011 602.463462,140.689115 602.367012,141.323961 C602.204953,142.696168 602.19584,144.082131 602.339843,145.45635 C602.329873,145.655398 602.411165,145.848138 602.56067,145.979925 C602.710176,146.111712 602.911593,146.168176 603.107817,146.133308 Z" id="Path" fill="#B89B2D" fill-rule="nonzero"></path>
            <circle id="Oval" fill="#6D7D8C" fill-rule="nonzero" cx="569.519372" cy="82.0414438" r="16.5245716"></circle>
            <path d="M585.993681,80.7137907 C585.540866,80.6431516 554.073405,76.1630017 554.073405,76.1630017 C548.715247,85.6721131 520.311078,145.721246 517.132771,161.777607 C511.124371,192.131597 536.57664,197.42953 553.226188,199.787337 C572.006231,202.447171 596.669243,200.093893 598.287151,169.717263 C598.705099,161.875868 586.444232,80.7848827 585.993681,80.7137907 Z" id="Path" fill="#6D7D8C" fill-rule="nonzero"></path>
            <path d="M579.670122,156.650838 C579.670122,156.650838 583.106081,194.271147 548.742869,190.702513 C521.257009,187.84978 522.922914,162.537431 523.856166,155.947164 C524.781719,149.410329 531.299989,136.108893 531.400514,135.905126 L528.728906,137.73314 C529.527671,135.201452 535.590862,123.80682 539.138666,114.179524 L545.796855,107.56571 L541.202143,108.489452 C544.009595,100.882163 549.410771,86.9458812 549.410771,86.9458812 L576.087451,91.1393994 L577.964368,113.864817 L574.110461,111.202719 L578.222473,119.012416 L581.732693,148.708918 L579.341378,147.141726 L581.746278,158.634167 L579.670122,156.650838 Z" id="Path" fill="#F4F4F4" fill-rule="nonzero"></path>
            <circle id="Oval" fill="#F4F4F4" fill-rule="nonzero" cx="562.394783" cy="91.3082993" r="13.6935733"></circle>
            <path d="M590.284554,92.7767778 C590.284554,92.7767778 581.23188,96.2294909 578.507746,105.071153 C574.624406,117.673896 575.16552,136.858754 596.478608,137.929661 C596.478608,137.929661 597.384238,143.589847 596.297482,144.620001 C596.268049,144.648528 566.185296,149.524891 570.72567,109.279161 C572.355804,94.8461416 585.277781,87.3846588 589.18195,90.0259277 C590.486962,90.9071054 590.408173,90.8025051 590.284554,92.7767778 Z" id="Path" fill="#E9C539" fill-rule="nonzero"></path>
            <path d="M592.89322,100.090643 C592.89322,100.090643 605.255065,121.395128 607.963804,125.059306 C611.078717,129.270483 608.484088,132.489544 607.169566,133.512453 C605.407664,134.882218 601.645225,135.821808 599.069615,133.42189 C597.378351,131.845641 581.178448,109.151015 581.178448,109.151015 L592.89322,100.090643 Z" id="Path" fill="#6D7D8C" fill-rule="nonzero"></path>
            <circle id="Oval" fill="#6D7D8C" fill-rule="nonzero" cx="587.002099" cy="104.577132" r="7.407145"></circle>
            <circle id="Oval" fill="#394659" fill-rule="nonzero" cx="583.688853" cy="123.329553" r="4.46565986"></circle>
            <polygon id="Path" fill="#6D7D8C" fill-rule="nonzero" points="601.245843 134.717393 581.224182 126.999164 585.920778 119.504173 604.865644 123.398381"></polygon>
            <path d="M584.675537,118.993398 L595.517282,121.489313 L592.890956,123.349477 L597.133378,127.26225 L591.416591,128.383872 L594.339058,132.04805 L582.29192,127.585559 C582.29192,127.585559 583.013254,121.503351 584.675537,118.993398 Z" id="Path" fill="#394659" fill-rule="nonzero"></path>
            <circle id="Oval" fill="#394659" fill-rule="nonzero" cx="584.381207" cy="123.884251" r="4.46565986"></circle>
            <path d="M573.968277,108.573223 C572.972085,109.590245 576.325179,112.379132 577.112171,113.871157 C577.571778,114.742372 571.241879,110.82643 569.499448,112.326152 C567.757016,113.825875 569.765703,115.948671 569.765703,115.948671 C569.076776,116.386831 568.616555,117.10691 568.508236,117.916152 C568.322582,120.112756 569.499448,120.551081 569.756194,120.844505 C569.756194,120.844505 569.299304,121.809906 569.59952,123.665089 C569.911509,125.592269 575.010657,127.290777 582.618852,127.98132 C585.692106,128.260254 587.509252,122.812438 585.817083,119.694808 C582.601192,113.769273 575.856062,106.643326 573.968277,108.573223 Z" id="Path" fill="#394659" fill-rule="nonzero"></path>
            <circle id="Oval" fill="#6D7D8C" fill-rule="nonzero" cx="545.449094" cy="54.5093965" r="8.7139686"></circle>
            <path d="M551.572961,48.3094558 C551.572961,48.3094558 535.796893,32.6307423 534.399053,32.7860578 C533.001214,32.9413733 534.327056,54.3703823 538.443143,59.5714135 C542.559229,64.7724446 551.572961,48.3094558 551.572961,48.3094558 Z" id="Path" fill="#6D7D8C" fill-rule="nonzero"></path>
            <polygon id="Path" fill="#181A1C" fill-rule="nonzero" points="545.661011 48.1564044 537.584606 41.2740718 540.253949 54.6538444"></polygon>
            <circle id="Oval" fill="#6D7D8C" fill-rule="nonzero" cx="589.518844" cy="51.1563027" r="8.7139686"></circle>
            <path d="M582.52693,45.9543659 C582.52693,45.9543659 595.749124,28.0681801 597.152849,28.0114661 C598.556575,27.9549764 600.490095,49.3364399 597.208093,55.1003198 C593.926091,60.8641998 582.52693,45.9543659 582.52693,45.9543659 Z" id="Path" fill="#6D7D8C" fill-rule="nonzero"></path>
            <polygon id="Path" fill="#181A1C" fill-rule="nonzero" points="588.347865 44.9088164 595.289969 36.8835792 594.675952 50.5128528"></polygon>
            <path d="M519.753211,84.5495852 C519.753211,84.5495852 539.293529,41.7323204 565.679502,38.9511317 C588.938788,36.497781 614.768252,69.481266 618.350017,77.9153951 C618.350017,77.9135838 567.880635,104.651847 519.753211,84.5495852 Z" id="Path" fill="#6D7D8C" fill-rule="nonzero"></path>
            <path d="M524.506408,86.3848437 C524.506408,86.3848437 534.076649,50.6609232 562.116755,48.076709 C588.534878,45.641018 614.249779,79.8711023 614.249779,79.8711023 C614.249779,79.8711023 594.045634,91.9743899 564.567389,92.7378357 C552.514816,93.0489195 537.483628,91.5414989 524.506408,86.3848437 Z" id="Path" fill="#F4F4F4" fill-rule="nonzero"></path>
            <path d="M568.005612,48.0921047 C568.005612,48.0921047 583.213398,49.128145 600.491906,71.2277728 C600.491906,71.2277728 570.310439,81.370825 564.176157,80.5942476 C558.041874,79.8176702 557.583173,51.0544193 568.005612,48.0921047 Z" id="Path" fill="#394659" fill-rule="nonzero"></path>
            <path d="M556.458381,48.8904172 C556.458381,48.8904172 542.466402,50.6020573 530.570051,77.252927 C530.570051,77.252927 551.969627,83.7481029 557.044776,81.9205422 C562.119924,80.0929816 565.2448,50.629679 556.458381,48.8904172 Z" id="Path" fill="#394659" fill-rule="nonzero"></path>
            <path d="M559.202891,40.9485914 C559.202891,40.9485914 569.463675,32.4654649 567.793241,23.8556437 C567.793241,23.8556437 571.672506,29.8078947 570.003431,34.5189802 C570.003431,34.5189802 573.41539,33.5033165 573.744587,31.369653 C573.744587,31.369653 576.503135,38.4788459 572.411953,39.7308789 C568.320771,40.9829119 559.202891,40.9485914 559.202891,40.9485914 Z" id="Path" fill="#6D7D8C" fill-rule="nonzero"></path>
            <circle id="Oval" fill="#F4F4F4" fill-rule="nonzero" cx="548.604307" cy="63.1798949" r="6.01519221"></circle>
            <circle id="Oval" fill="#181A1C" fill-rule="nonzero" cx="549.179835" cy="63.5679572" r="3.25890834"></circle>
            <circle id="Oval" fill="#F4F4F4" fill-rule="nonzero" cx="550.902796" cy="61.785678" r="1.19407271"></circle>
            <path d="M542.56421,63.4805639 C542.56421,63.4805639 542.124527,57.3037168 548.280092,56.8350535 C554.045783,56.3967287 554.65663,62.7379476 554.65663,62.7379476 C554.65663,62.7379476 553.660438,56.8866743 548.317223,57.2933021 C542.729488,57.7180424 542.56421,63.4805639 542.56421,63.4805639 Z" id="Path" fill="#27303D" fill-rule="nonzero"></path>
            <path d="M549.749023,82.7872298 C550.868998,84.0567594 552.266042,85.0515937 553.832055,85.6947539 C556.849577,86.9242139 560.231696,86.9058106 563.23566,85.6435858 C564.793346,84.9823863 566.176191,83.9684648 567.275221,82.681724 C566.722393,84.4653001 565.531493,85.9825004 563.930278,86.9431643 C560.629065,88.9692358 556.474761,88.9901819 553.153285,86.9975021 C551.544209,86.0548517 550.333912,84.5579988 549.749023,82.7872298 L549.749023,82.7872298 Z" id="Path" fill="#D3D9D9" fill-rule="nonzero"></path>
            <path d="M566.540303,69.3205168 C566.540303,69.3205168 557.581361,56.5162718 568.784,47.5016342 C568.784,47.5016342 569.633481,44.980814 561.472852,45.5939253 C553.312223,46.2070366 555.21314,48.7115554 555.21314,48.7115554 C558.727889,64.5913187 548.016101,70.7296765 548.016101,70.7296765 L566.540303,69.3205168 Z" id="Path" fill="#6D7D8C" fill-rule="nonzero"></path>
            <path d="M570.872858,75.7119981 C570.860156,80.6023983 564.805116,85.5611735 557.872521,85.5431104 C550.939926,85.5249483 545.753838,80.5349289 545.766494,75.64634 C545.779196,70.757751 551.409948,66.8092057 558.342996,66.8272562 C565.276044,66.8454309 570.885967,70.8234092 570.872858,75.7119981 Z" id="Path" fill="#F4F4F4" fill-rule="nonzero"></path>
            <ellipse id="Oval" fill="#181A1C" fill-rule="nonzero" transform="translate(556.799989, 78.246575) rotate(-3.540000) translate(-556.799989, -78.246575) " cx="556.799989" cy="78.2465749" rx="7.31748766" ry="5.14986307"></ellipse>
            <ellipse id="Oval" fill="#ED908E" fill-rule="nonzero" transform="translate(556.582419, 81.074278) rotate(-3.540000) translate(-556.582419, -81.074278) " cx="556.582419" cy="81.0742776" rx="5.53294441" ry="2.34105267"></ellipse>
            <path d="M556.989532,71.268979 C551.543528,71.6058732 547.303823,74.7103717 547.519816,78.2033853 C547.735809,81.6963989 552.325993,84.2548027 557.771996,83.9179085 C563.218,83.5810142 567.457706,80.4765158 567.241713,76.9835021 C567.02572,73.4904885 562.435536,70.9329904 556.989532,71.268979 Z M561.741371,79.7818978 C559.802871,83.0946911 553.017894,84.2647646 550.867476,78.5085825 C550.605451,77.7999715 550.797241,77.0032772 551.353043,76.4915432 C551.908844,75.9798092 552.718634,75.8543337 553.403239,76.1738692 C554.114158,76.5030656 554.878057,76.9192024 555.825346,76.8585253 C557.410197,76.7566419 558.820716,75.3959334 560.432284,75.4679309 C562.955368,75.580229 562.754771,78.0924457 561.741371,79.7823506 L561.741371,79.7818978 Z" id="Shape" fill="#F4F4F4" fill-rule="nonzero"></path>
            <line x1="555.725726" y1="72.0917435" x2="556.10111" y2="78.0910872" id="Path" stroke="#181A1C" stroke-width="1.166"></line>
            <path d="M550.790045,68.0567106 C550.790045,68.0567106 556.207521,63.8609284 560.749707,67.4757492 C560.749707,67.4757492 558.339826,72.943941 555.315929,72.8642456 C553.169134,72.8062853 550.619786,69.689108 550.790045,68.0567106 Z" id="Path" fill="#181A1C" fill-rule="nonzero"></path>
            <circle id="Oval" fill="#F4F4F4" fill-rule="nonzero" cx="573.615082" cy="61.0330997" r="6.01519221"></circle>
            <circle id="Oval" fill="#181A1C" fill-rule="nonzero" cx="574.057029" cy="61.2776198" r="3.25890834"></circle>
            <circle id="Oval" fill="#F4F4F4" fill-rule="nonzero" cx="575.633277" cy="59.4414556" r="1.19407271"></circle>
            <path d="M567.537401,61.4370106 C567.537401,61.4370106 567.262995,55.2474847 573.41856,54.7806326 C579.184251,54.341855 579.724007,60.6885077 579.724007,60.6885077 C579.724007,60.6885077 578.798906,54.8318006 573.453427,55.2384284 C567.867956,55.6618102 567.537401,61.4370106 567.537401,61.4370106 Z" id="Path" fill="#27303D" fill-rule="nonzero"></path>
            <path d="M565.403738,50.8642371 C565.671062,49.7162676 566.334928,48.6994611 567.278391,47.9929383 C568.306144,47.201803 569.606262,46.8517271 570.892306,47.0198392 C571.523951,47.1141663 572.134021,47.319107 572.694509,47.6252526 C573.219428,47.9183691 573.698353,48.2871374 574.115895,48.7197061 C574.915373,49.5411668 575.481766,50.5606433 575.756896,51.6734172 C574.737157,51.143171 573.87862,50.57353 573.022347,50.1388277 C572.263801,49.7181919 571.440239,49.427397 570.585751,49.2784796 C569.764836,49.1750817 568.931102,49.2682017 568.153229,49.5501685 C567.198456,49.9031431 566.278098,50.3430113 565.403738,50.8642371 L565.403738,50.8642371 Z" id="Path" fill="#181A1C" fill-rule="nonzero"></path>
            <path d="M556.431665,51.9016359 C556.158234,51.5131329 555.821485,51.1733217 555.435472,50.8963869 C555.157391,50.7012059 554.82422,50.5999852 554.484561,50.6074911 C553.763817,50.6972277 553.068935,50.9329637 552.442366,51.3002978 C551.691146,51.6802094 550.905512,52.1425334 550.077314,52.5930841 C549.209559,53.0914203 548.296899,53.5071201 547.351369,53.8347024 C547.715312,52.8628629 548.258948,51.9682202 548.95388,51.1975088 C549.645725,50.4055212 550.480454,49.7508259 551.414476,49.267612 C551.924408,49.0034524 552.471432,48.8181085 553.036912,48.7178948 C553.679834,48.5963989 554.3438,48.6543667 554.955941,48.8854363 C556.14925,49.3628734 556.787056,50.6664723 556.431665,51.9016359 L556.431665,51.9016359 Z" id="Path" fill="#181A1C" fill-rule="nonzero"></path>
        </g>
    </g>
</svg>